<?xml version="1.0" standalone="no"?>
<!DOCTYPE svg PUBLIC "-//W3C//DTD SVG 20010904//EN"
 "http://www.w3.org/TR/2001/REC-SVG-20010904/DTD/svg10.dtd">
<svg version="1.0" xmlns="http://www.w3.org/2000/svg"
 width="1280.000000pt" height="832.000000pt" viewBox="0 0 1280.000000 832.000000"
 preserveAspectRatio="xMidYMid meet">
<metadata>
Created by potrace 1.15, written by Peter Selinger 2001-2017
</metadata>
<g transform="translate(0.000000,832.000000) scale(0.100000,-0.100000)"
fill="#000000" stroke="none">
<path d="M9420 8302 c0 -34 162 -84 522 -164 181 -40 327 -76 325 -80 -1 -5
-810 -478 -1797 -1053 l-1794 -1046 -267 -9 c-223 -7 -277 -12 -335 -29 -66
-20 -74 -20 -179 -7 -106 14 -115 13 -261 -11 l-151 -26 -539 27 c-325 16
-568 32 -611 41 -40 8 -132 22 -205 30 -137 17 -164 27 -208 76 -15 17 -38 29
-60 32 -19 3 -80 16 -134 31 -55 14 -104 25 -110 23 -5 -2 35 -16 90 -31 135
-38 170 -69 92 -81 -30 -4 -176 15 -478 64 -375 60 -465 71 -655 81 -242 12
-490 32 -690 55 -71 8 -260 28 -420 44 -289 29 -291 29 -540 16 -178 -10 -279
-20 -350 -35 -92 -20 -118 -21 -330 -16 -126 4 -250 9 -275 11 -78 9 -17 -11
200 -63 l206 -50 318 -191 317 -191 282 -79 c1169 -329 1031 -286 1425 -450
196 -82 681 -284 1077 -449 l720 -300 290 -167 c281 -162 293 -168 370 -179
l79 -11 9 -43 c8 -42 11 -45 195 -167 163 -109 195 -126 247 -135 107 -19 105
-18 105 -49 0 -17 170 -380 421 -900 309 -640 418 -876 410 -884 -18 -18 -12
-36 15 -43 22 -6 55 -66 246 -448 242 -483 254 -511 232 -520 -21 -8 -17 -26
5 -26 11 0 23 -6 28 -13 8 -13 253 -518 253 -522 0 -1 -196 37 -435 85 -414
83 -435 86 -429 66 3 -12 9 -24 13 -27 3 -4 139 -52 301 -107 266 -91 329
-108 645 -177 310 -68 1035 -208 1042 -202 3 3 20 243 133 1792 33 457 63 862
66 901 l6 71 46 -11 c36 -8 105 -54 306 -201 l259 -190 428 -750 c236 -413
434 -751 441 -753 11 -2 628 174 634 181 11 14 274 1134 274 1169 l0 46 -195
108 c-108 59 -194 108 -193 109 2 1 77 -1 168 -5 91 -5 223 -10 295 -11 l130
-4 48 125 c44 113 49 134 50 215 l2 89 -297 166 c-163 91 -295 166 -294 167 8
9 623 -73 733 -97 76 -16 272 -54 436 -85 l298 -55 49 39 c51 40 49 40 233 62
141 17 138 24 -53 133 l-125 71 -13 50 -14 50 -411 169 c-227 93 -416 172
-420 176 -5 4 43 11 105 15 l114 7 53 112 52 112 -3 113 -3 113 -227 122 -227
121 102 6 c56 4 181 7 278 8 l176 1 68 142 c38 79 167 347 287 597 l218 453
-207 202 c-115 112 -224 217 -244 234 l-37 32 -606 -330 c-334 -181 -609 -330
-612 -330 -2 0 -4 8 -4 18 -1 9 -9 32 -18 50 -15 28 -44 45 -224 131 l-208 99
-267 -68 c-147 -38 -269 -68 -270 -66 -2 1 321 504 717 1116 503 778 717 1116
708 1121 -7 4 -47 16 -88 27 -41 12 -205 57 -365 102 -305 86 -1197 290 -1350
309 -49 6 -107 14 -127 17 -33 5 -38 3 -38 -14z"/>
</g>
</svg>
