<?xml version="1.0" standalone="no"?>
<!DOCTYPE svg PUBLIC "-//W3C//DTD SVG 20010904//EN"
 "http://www.w3.org/TR/2001/REC-SVG-20010904/DTD/svg10.dtd">
<svg version="1.0" xmlns="http://www.w3.org/2000/svg"
 width="1280.000000pt" height="1066.000000pt" viewBox="0 0 1280.000000 1066.000000"
 preserveAspectRatio="xMidYMid meet">
<metadata>
Created by potrace 1.15, written by Peter Selinger 2001-2017
</metadata>
<g transform="translate(0.000000,1066.000000) scale(0.100000,-0.100000)"
fill="#000000" stroke="none">
<path d="M7602 10640 c-40 -10 -104 -36 -142 -56 -69 -36 -150 -111 -150 -138
0 -7 -12 -22 -27 -31 -156 -99 -274 -250 -379 -486 -199 -448 -333 -1198 -462
-2593 -10 -103 -19 -121 -57 -110 -11 4 -21 7 -21 8 -1 0 -9 73 -19 161 -177
1696 -384 2524 -722 2895 -27 30 -53 68 -57 83 -4 16 -26 48 -51 72 -83 83
-247 145 -385 145 -238 -1 -241 -168 -5 -280 102 -48 169 -64 271 -64 64 0 88
4 117 22 l36 21 41 -47 c281 -318 537 -1147 659 -2132 42 -337 100 -1091 87
-1125 -3 -8 -15 -15 -26 -15 -25 0 -53 44 -81 130 -51 153 -465 777 -753 1135
-430 534 -866 946 -1351 1274 -912 618 -1903 860 -2975 725 -244 -31 -459 -76
-889 -189 -198 -52 -261 -94 -261 -173 0 -80 112 -218 295 -362 204 -163 266
-247 279 -382 12 -123 53 -199 157 -290 75 -65 153 -161 180 -223 15 -33 20
-63 18 -106 l-3 -60 45 -25 c65 -37 135 -110 160 -168 24 -55 30 -142 16 -231
l-7 -50 45 -24 c55 -29 101 -79 129 -140 26 -58 27 -187 2 -280 -9 -35 -16
-64 -14 -65 46 -27 122 -96 146 -131 56 -84 67 -134 67 -295 0 -80 -3 -171 -8
-202 l-7 -58 42 -21 c143 -72 219 -201 234 -395 l7 -90 69 -12 c71 -12 148
-46 205 -90 67 -51 128 -168 157 -302 5 -26 6 -26 103 -25 89 0 104 -3 163
-31 81 -39 142 -93 214 -188 66 -88 114 -116 197 -116 95 1 174 51 241 154 21
32 38 57 38 55 0 -2 -14 -58 -32 -124 -29 -111 -32 -133 -33 -288 l-1 -167
-84 -42 c-65 -33 -104 -61 -166 -123 -91 -90 -138 -173 -172 -305 -19 -73 -20
-75 -53 -80 -28 -4 -38 -13 -56 -50 -35 -70 -45 -167 -46 -410 l0 -225 54 -55
c78 -79 93 -131 86 -304 -5 -137 -22 -231 -77 -413 -16 -56 -30 -106 -30 -110
0 -5 20 -19 45 -32 59 -31 140 -118 170 -183 43 -92 57 -183 53 -332 l-3 -134
45 -7 c64 -10 196 -53 260 -85 160 -81 292 -236 349 -411 10 -31 18 -38 46
-43 37 -7 80 -51 93 -94 4 -15 6 -85 6 -157 -2 -105 -6 -142 -23 -190 -27 -76
-84 -171 -156 -260 -214 -264 -285 -395 -285 -526 0 -26 -7 -78 -16 -115 -8
-36 -15 -104 -15 -149 0 -130 33 -191 143 -262 l70 -45 41 18 c109 49 190 146
234 279 26 79 27 84 34 475 5 266 12 429 22 500 9 58 19 125 22 150 11 73 90
226 145 281 66 66 107 77 204 55 135 -32 216 -2 357 134 96 93 171 140 221
140 38 0 92 -23 131 -56 28 -24 37 -26 101 -22 203 10 384 207 612 668 75 152
93 209 154 498 38 179 77 403 149 863 123 777 197 1096 340 1462 l43 107 34 0
c20 0 43 -4 53 -10 48 -25 97 -241 80 -355 -15 -106 -11 -355 7 -437 15 -68
63 -188 74 -188 11 0 55 109 72 180 19 81 24 341 9 450 -15 100 22 289 65 335
17 19 33 25 63 25 l39 0 43 -107 c137 -351 225 -725 329 -1393 92 -594 145
-888 210 -1155 25 -102 46 -159 101 -270 225 -458 412 -663 615 -673 64 -4 73
-2 101 22 107 90 192 71 347 -79 147 -142 225 -173 357 -140 61 14 78 15 116
4 112 -31 218 -205 247 -404 29 -198 36 -326 36 -623 0 -327 9 -399 62 -512
38 -79 122 -165 195 -199 l51 -24 74 49 c106 71 131 117 136 243 3 65 -1 118
-12 164 -9 38 -16 92 -16 120 -1 117 -67 246 -230 452 -201 254 -233 323 -234
520 -1 72 2 142 6 157 13 43 56 87 93 94 28 5 36 12 46 43 57 175 189 330 349
411 64 32 196 75 260 85 l45 7 -3 134 c-4 149 10 240 53 332 30 65 111 152
170 183 25 13 45 27 45 32 0 4 -16 62 -36 128 -52 177 -74 303 -74 428 0 150
16 201 88 271 l56 55 -1 225 c-1 244 -12 340 -46 410 -18 37 -28 46 -56 50
-32 5 -34 8 -51 70 -23 88 -55 166 -92 223 -48 74 -155 167 -249 214 l-83 43
-1 167 c-1 155 -4 177 -33 288 -18 66 -32 122 -32 124 0 2 17 -23 38 -55 67
-103 146 -153 241 -154 83 0 131 28 197 116 72 95 133 149 214 188 59 28 74
31 163 31 97 -1 98 -1 103 25 29 135 90 251 159 304 58 44 129 75 202 88 l70
12 7 90 c15 194 91 323 235 396 38 19 42 24 37 48 -15 62 -19 329 -6 383 25
105 78 185 160 240 43 29 49 37 44 59 -3 14 -13 57 -21 95 -34 161 20 301 142
366 l45 24 -7 45 c-15 83 -8 181 16 236 25 58 95 131 160 168 l45 25 -3 60
c-4 104 37 173 204 336 108 106 132 151 150 281 8 51 23 110 35 135 31 60 116
146 245 249 183 144 295 282 295 362 0 79 -63 121 -261 173 -661 173 -994 225
-1455 225 -1408 0 -2673 -684 -3760 -2035 -289 -359 -702 -981 -753 -1135 -30
-92 -56 -132 -84 -128 -22 3 -22 5 -20 148 3 171 27 567 49 800 115 1257 397
2160 755 2419 39 29 44 30 60 15 120 -108 519 6 583 166 20 51 8 84 -43 114
-50 29 -174 32 -269 6z"/>
</g>
</svg>
