<?xml version="1.0" standalone="no"?>
<!DOCTYPE svg PUBLIC "-//W3C//DTD SVG 20010904//EN"
 "http://www.w3.org/TR/2001/REC-SVG-20010904/DTD/svg10.dtd">
<svg version="1.0" xmlns="http://www.w3.org/2000/svg"
 width="842.000000pt" height="1280.000000pt" viewBox="0 0 842.000000 1280.000000"
 preserveAspectRatio="xMidYMid meet">
<metadata>
Created by potrace 1.15, written by Peter Selinger 2001-2017
</metadata>
<g transform="translate(0.000000,1280.000000) scale(0.100000,-0.100000)"
fill="#000000" stroke="none">
<path d="M3252 12778 c-62 -67 -109 -277 -132 -593 -20 -286 -5 -1090 26
-1367 9 -79 -1 -73 -16 10 -20 115 -90 407 -136 569 -97 338 -238 666 -347
808 -56 74 -134 135 -172 135 -36 0 -81 -45 -99 -98 -73 -213 -16 -705 154
-1327 44 -163 117 -403 135 -447 4 -10 5 -18 1 -18 -3 0 -55 98 -115 218 -314
619 -608 1058 -757 1129 -32 16 -38 16 -62 2 -126 -70 7 -696 292 -1371 24
-60 43 -108 42 -108 -2 0 -29 43 -60 95 -81 135 -192 280 -274 357 -113 106
-182 114 -222 25 -35 -77 -21 -284 31 -453 11 -36 19 -67 17 -69 -2 -2 -21 31
-43 73 -50 95 -133 185 -166 180 -81 -11 -91 -237 -23 -566 29 -141 107 -422
152 -549 16 -46 26 -83 23 -82 -3 0 -19 19 -36 41 -53 73 -121 107 -166 84
-39 -19 -76 -101 -95 -211 -14 -81 -16 -138 -11 -315 11 -412 100 -846 258
-1253 l38 -98 -54 50 c-133 121 -219 99 -254 -67 -28 -132 -4 -469 53 -748 46
-225 121 -486 172 -602 13 -30 24 -55 24 -56 0 -1 -18 0 -39 2 -200 19 -115
-522 126 -797 24 -27 43 -51 43 -53 0 -3 -14 -5 -32 -5 -41 0 -75 -39 -83 -95
-19 -131 80 -400 191 -516 25 -26 41 -48 35 -50 -29 -10 -62 -47 -71 -82 -15
-57 3 -128 65 -255 69 -139 186 -297 332 -446 l114 -117 -98 34 c-167 56 -277
72 -593 84 -290 10 -402 24 -520 61 -108 35 -162 72 -206 140 -31 50 -77 63
-160 48 -199 -36 -450 -248 -515 -436 -29 -85 -26 -135 13 -178 64 -74 216
-159 433 -245 108 -43 251 -91 652 -220 l132 -42 40 -62 c157 -240 566 -534
896 -644 106 -36 227 -62 287 -62 l43 -1 -27 -17 c-42 -25 -58 -71 -73 -205
-8 -67 -19 -147 -25 -179 -19 -99 16 -232 84 -321 20 -26 26 -46 26 -83 0 -79
18 -125 69 -175 51 -51 136 -89 199 -89 32 0 45 -8 89 -54 63 -65 141 -105
233 -118 37 -6 91 -23 124 -41 84 -43 183 -49 281 -16 l71 24 39 -22 c47 -26
192 -75 395 -133 80 -23 151 -46 158 -52 15 -13 16 -62 1 -91 -6 -12 -49 -61
-95 -108 -51 -53 -84 -95 -84 -107 0 -27 28 -42 79 -42 23 0 41 -3 41 -6 0 -3
-10 -20 -22 -37 -16 -23 -23 -46 -23 -79 0 -27 -3 -48 -6 -48 -3 0 -21 10 -39
23 -45 30 -57 69 -37 113 9 18 12 36 8 39 -15 9 -33 -24 -38 -68 -5 -38 -1
-48 25 -79 20 -22 50 -41 83 -51 77 -25 86 -22 50 18 -17 20 -31 43 -31 52 0
23 63 133 77 133 22 0 73 51 92 93 38 85 110 123 252 134 61 5 88 2 123 -11
86 -33 142 -125 167 -273 6 -37 13 -78 15 -90 6 -30 97 -59 138 -43 32 12 56
62 63 135 7 66 -16 118 -86 200 l-52 60 27 3 c44 6 112 -27 183 -87 92 -80
111 -91 147 -91 23 0 38 7 51 26 l19 25 27 -27 c48 -48 47 -110 -1 -142 -22
-14 -22 -14 -21 14 3 41 -9 72 -33 85 -29 16 -35 2 -10 -24 29 -30 28 -59 -3
-95 -14 -17 -25 -33 -25 -36 0 -12 105 35 126 56 42 43 36 109 -16 160 -22 22
-40 48 -40 58 0 10 -11 32 -25 48 -37 44 -122 81 -275 121 l-35 9 31 1 c17 1
89 -17 159 -40 70 -22 133 -38 139 -36 21 8 104 -13 117 -29 7 -8 12 -33 11
-54 -1 -22 2 -40 8 -40 14 0 57 61 65 91 15 61 -61 148 -135 154 -17 1 -38 9
-48 17 -47 42 -108 49 -622 68 -367 14 -430 26 -546 105 -207 141 -288 260
-239 354 24 47 97 103 206 160 82 42 122 72 189 136 137 132 285 234 547 379
145 80 461 228 472 221 5 -2 41 8 82 24 656 251 1449 349 2027 251 109 -19
114 -21 185 -75 42 -31 109 -69 159 -89 47 -19 118 -51 157 -70 39 -20 74 -36
78 -36 4 0 -25 33 -64 72 -76 78 -97 114 -133 223 -13 39 -38 100 -56 137 -19
37 -34 70 -34 73 0 11 161 4 244 -10 154 -27 245 -77 279 -153 l20 -46 -22
-74 c-12 -41 -20 -76 -19 -78 9 -8 158 147 179 186 37 70 33 166 -9 248 -35
67 -145 189 -237 263 -46 37 -55 49 -55 76 0 103 -211 208 -619 309 -308 77
-505 146 -715 251 -364 182 -725 455 -849 641 -70 105 -207 377 -265 525 -128
326 -227 709 -281 1087 -48 332 -56 455 -56 915 1 410 3 466 33 820 47 557 62
819 69 1205 9 549 -21 861 -90 938 -28 30 -41 28 -76 -15 -87 -105 -189 -534
-246 -1028 -9 -76 -18 -141 -21 -144 -9 -9 22 420 42 569 18 145 31 211 105
541 156 703 249 1257 249 1481 -1 137 -25 263 -63 319 -105 156 -292 -75 -430
-531 -87 -285 -179 -830 -189 -1114 -1 -28 -5 235 -9 584 -4 349 -12 718 -18
820 -39 662 -101 1053 -174 1105 -21 15 -24 14 -48 -15 -74 -87 -150 -539
-199 -1185 -7 -82 -13 -151 -14 -153 -2 -1 -6 114 -9 255 -13 582 -99 1060
-224 1249 -133 202 -267 -49 -352 -657 -31 -226 -68 -628 -73 -788 -1 -37 -5
96 -8 294 -9 442 -30 708 -76 960 -37 203 -90 358 -139 410 -38 41 -63 44 -93
13z m2179 -12095 c29 -34 37 -75 20 -101 -6 -10 -10 -7 -15 12 -7 27 -33 46
-81 56 -16 3 -30 11 -29 18 1 7 2 25 3 41 1 29 2 29 37 18 19 -6 48 -26 65
-44z"/>
<path d="M4784 206 c-3 -9 -3 -27 0 -40 10 -39 -9 -73 -49 -87 -42 -15 -41
-26 6 -57 60 -41 136 -15 175 59 19 38 29 105 15 113 -7 5 -11 -2 -11 -16 0
-13 -12 -48 -26 -77 -29 -57 -66 -82 -110 -73 -26 5 -55 32 -35 32 7 0 23 11
36 25 20 19 25 34 25 74 0 50 -15 76 -26 47z"/>
</g>
</svg>
