<?xml version="1.0" standalone="no"?>
<!DOCTYPE svg PUBLIC "-//W3C//DTD SVG 20010904//EN"
 "http://www.w3.org/TR/2001/REC-SVG-20010904/DTD/svg10.dtd">
<svg version="1.0" xmlns="http://www.w3.org/2000/svg"
 width="1031.000000pt" height="1280.000000pt" viewBox="0 0 1031.000000 1280.000000"
 preserveAspectRatio="xMidYMid meet">
<metadata>
Created by potrace 1.15, written by Peter Selinger 2001-2017
</metadata>
<g transform="translate(0.000000,1280.000000) scale(0.100000,-0.100000)"
fill="#000000" stroke="none">
<path d="M2449 12549 c-44 -22 -99 -83 -99 -108 0 -10 -7 -24 -15 -31 -22 -19
-18 -72 11 -129 14 -28 33 -75 44 -105 10 -30 37 -80 60 -112 22 -33 55 -80
71 -106 17 -27 36 -51 43 -55 29 -18 57 -74 54 -105 -3 -29 -7 -34 -38 -38
l-35 -5 -6 -120 c-8 -152 -12 -171 -66 -281 -36 -73 -46 -105 -67 -214 -8 -36
-20 -81 -28 -100 -9 -19 -23 -71 -33 -115 -9 -44 -42 -163 -72 -265 -37 -124
-58 -217 -64 -281 -14 -130 4 -535 25 -606 9 -28 23 -93 30 -145 21 -140 72
-362 105 -458 16 -47 33 -103 39 -125 28 -110 75 -246 101 -298 62 -120 152
-258 206 -317 60 -64 96 -135 105 -205 4 -33 11 -69 15 -81 5 -17 -15 -49
-100 -155 -58 -74 -127 -161 -153 -193 -26 -33 -70 -87 -98 -120 -27 -34 -77
-97 -109 -141 -90 -122 -170 -218 -256 -310 -44 -45 -79 -90 -79 -99 0 -8 -38
-57 -84 -108 -46 -51 -101 -116 -123 -144 -21 -28 -55 -71 -75 -95 -84 -99
-129 -157 -172 -220 -24 -36 -65 -86 -90 -112 -25 -25 -46 -54 -46 -64 0 -10
49 -68 110 -128 l110 -110 113 -5 c122 -5 110 0 252 -105 17 -13 41 -26 55
-30 22 -7 88 -46 162 -97 15 -10 30 -18 33 -18 3 0 41 -22 84 -50 43 -27 82
-50 88 -50 5 0 28 -13 50 -29 22 -16 78 -49 124 -74 46 -25 120 -66 164 -91
121 -69 409 -209 505 -246 47 -17 92 -38 101 -46 8 -8 29 -14 45 -14 16 0 49
-9 73 -20 24 -11 47 -20 53 -20 5 0 33 -15 62 -34 29 -18 63 -37 77 -41 13 -3
103 -45 200 -92 l176 -85 48 -102 c26 -55 57 -114 69 -131 12 -16 28 -46 36
-65 7 -19 26 -54 42 -77 15 -23 28 -44 28 -47 0 -3 29 -45 65 -93 35 -49 79
-108 97 -133 18 -25 77 -90 130 -145 59 -61 109 -124 128 -160 17 -33 58 -87
91 -121 35 -35 63 -74 69 -95 7 -23 46 -72 120 -149 l110 -115 0 -78 c0 -84
11 -116 54 -156 36 -34 33 -51 -8 -51 -29 0 -42 -9 -93 -67 -33 -38 -70 -84
-83 -103 -14 -19 -52 -68 -85 -109 -33 -40 -69 -85 -79 -100 -11 -14 -47 -56
-81 -92 -34 -36 -74 -83 -90 -105 -16 -21 -108 -120 -205 -219 -97 -99 -201
-214 -232 -255 -66 -89 -68 -92 -146 -130 -69 -35 -142 -108 -142 -143 0 -20
-6 -25 -37 -30 -30 -5 -46 -1 -83 23 -95 61 -181 77 -228 44 -19 -13 -28 -14
-52 -4 -26 11 -35 9 -72 -13 -24 -14 -55 -38 -70 -54 -45 -47 -134 -213 -169
-315 -33 -94 -33 -97 -15 -117 18 -20 18 -22 -19 -88 -20 -37 -55 -93 -77
-123 -22 -30 -62 -86 -89 -124 -51 -71 -118 -202 -137 -266 -42 -147 -41 -396
4 -528 45 -136 121 -239 202 -273 53 -23 142 -25 183 -4 41 22 86 87 109 161
10 35 31 82 45 104 15 23 29 59 32 79 3 21 19 50 38 71 18 19 36 45 40 57 15
51 87 157 165 245 25 28 54 65 65 83 46 75 76 116 96 127 11 7 42 43 70 80 27
37 57 69 67 72 9 3 25 20 34 36 29 51 44 49 111 -17 63 -62 176 -143 198 -143
7 0 33 -13 59 -30 55 -36 151 -70 194 -70 25 0 43 13 95 68 35 37 76 85 91
107 16 22 45 55 64 74 34 31 248 281 309 360 15 20 39 50 52 66 26 32 175 223
260 334 28 36 70 91 94 121 23 30 69 91 102 135 32 44 68 93 80 108 52 68 233
357 280 447 16 30 50 81 76 113 52 63 111 150 143 209 25 47 27 174 5 275 -30
133 -47 198 -54 208 -4 6 -22 47 -40 92 -18 45 -52 121 -77 167 -24 47 -57
120 -73 163 -50 134 -136 299 -182 350 -14 16 -30 40 -37 56 -11 25 -10 27 11
27 40 0 208 -47 387 -107 179 -61 311 -121 390 -177 25 -18 68 -44 95 -59 59
-32 357 -137 388 -137 12 0 54 7 93 16 91 22 113 15 140 -38 15 -30 31 -46 53
-54 29 -9 30 -11 16 -30 -26 -34 -18 -71 25 -118 47 -51 50 -76 20 -206 -17
-75 -20 -124 -20 -416 0 -243 4 -353 14 -410 8 -44 17 -136 20 -205 5 -124 5
-127 -19 -153 -13 -15 -35 -26 -49 -26 -90 0 -282 -24 -303 -37 -68 -45 -89
-201 -48 -363 8 -30 19 -77 25 -105 7 -27 24 -75 38 -105 21 -43 32 -54 47
-52 11 2 27 4 35 5 24 3 49 -87 50 -180 0 -56 -8 -114 -25 -180 -27 -106 -31
-163 -14 -180 6 -6 12 -46 13 -89 6 -203 102 -371 255 -441 84 -39 192 -69
216 -60 29 12 37 57 29 162 -11 152 -9 260 9 368 14 83 24 110 65 180 26 45
61 116 77 157 16 41 32 80 37 86 4 6 10 27 12 47 4 27 1 39 -11 45 -14 8 -15
23 -4 133 6 68 14 143 17 167 l6 42 68 0 c38 0 71 4 74 9 3 4 25 11 49 14 95
13 175 48 217 93 l40 44 0 227 c1 141 7 284 17 373 20 183 28 555 13 630 -6
30 -15 179 -20 330 -10 286 -22 387 -65 541 -14 49 -25 99 -25 111 0 17 -33
57 -117 140 -95 93 -134 124 -198 156 -44 23 -99 56 -121 74 -23 18 -86 66
-140 107 -55 41 -139 107 -189 146 -49 40 -139 105 -200 147 -168 114 -269
182 -287 193 -9 6 -55 36 -102 68 -47 31 -88 57 -91 57 -3 0 -29 15 -58 33
-59 38 -200 110 -237 122 -14 4 -47 18 -75 30 -27 12 -77 32 -109 45 -33 13
-82 39 -109 57 -27 18 -53 33 -58 33 -9 0 -80 48 -187 127 -31 23 -73 53 -92
67 -19 13 -57 47 -85 75 -38 40 -46 54 -37 63 7 7 12 23 12 37 0 45 -35 87
-95 116 -78 38 -103 89 -122 245 -41 339 -56 511 -46 521 5 5 48 -4 99 -20
140 -47 401 -120 514 -145 36 -8 79 -18 95 -22 35 -8 613 -23 1148 -30 359 -4
369 -4 405 16 45 25 76 71 86 125 15 80 20 83 158 88 68 3 140 9 160 12 52 10
83 0 115 -35 30 -34 63 -38 111 -14 57 28 80 86 46 115 -9 8 -25 32 -35 55 -9
23 -22 45 -28 48 -14 9 -15 86 -1 86 19 0 10 59 -12 81 -40 37 -106 79 -150
95 -44 16 -120 13 -142 -5 -6 -5 -48 -11 -93 -13 -60 -3 -88 -9 -102 -22 -11
-10 -24 -16 -28 -13 -5 3 -106 8 -224 12 -118 3 -295 10 -394 15 -175 9 -250
5 -445 -26 -29 -5 -50 2 -110 35 -68 36 -84 41 -170 47 -122 8 -186 26 -287
80 -99 52 -150 56 -274 18 -11 -3 -46 22 -99 71 -45 41 -87 75 -93 75 -7 0
-20 14 -30 31 -15 27 -22 31 -47 26 -25 -6 -34 0 -69 41 -23 26 -41 55 -41 64
0 9 -6 21 -14 25 -8 4 -38 35 -66 68 -29 33 -94 103 -145 155 -54 55 -104 117
-119 147 -14 29 -40 68 -56 87 -33 38 -121 86 -156 86 -11 0 -39 12 -60 27
-46 31 -143 72 -245 103 -41 13 -79 28 -85 34 -7 6 -21 38 -33 71 -12 33 -34
78 -48 100 l-26 39 82 161 c95 187 109 238 113 419 2 83 7 134 15 145 15 20
16 56 3 81 -8 16 -6 24 12 42 18 18 24 39 29 93 8 88 26 155 46 177 9 10 12
18 8 18 -14 0 28 41 57 56 28 14 38 47 18 59 -6 3 -7 30 -4 63 5 48 3 66 -15
100 -12 23 -27 42 -34 42 -6 1 -21 15 -32 32 -23 37 -80 71 -104 63 -10 -3
-44 6 -77 19 -109 45 -314 69 -392 47 -23 -7 -42 -6 -60 1 -56 24 -163 30
-228 13 -115 -29 -169 -73 -301 -244 -52 -66 -94 -189 -94 -277 -2 -194 8
-364 25 -427 18 -69 88 -221 107 -233 14 -8 49 -90 49 -114 0 -10 -4 -20 -9
-22 -5 -1 -26 -37 -48 -78 l-39 -75 -52 -3 c-41 -2 -61 2 -96 23 -59 35 -112
95 -125 142 -32 115 -41 173 -41 253 0 115 -25 209 -89 339 -47 97 -51 109
-51 178 0 81 -18 130 -71 190 -18 21 -30 49 -35 80 -4 28 -19 65 -36 89 -29
40 -29 43 -14 72 20 40 20 81 0 133 -14 34 -15 47 -4 82 18 60 21 507 4 567
-7 25 -15 83 -19 130 -3 47 -11 105 -16 129 -5 24 -10 74 -10 110 -1 36 -7 99
-16 141 -25 125 -26 155 -8 244 16 80 16 92 1 183 -9 54 -24 126 -32 160 -14
55 -14 64 0 92 26 49 20 94 -17 143 -33 43 -47 48 -93 33 -16 -5 -23 -2 -27
14 -4 17 -13 21 -45 21 -21 0 -65 9 -98 20 -32 11 -76 20 -96 20 -33 0 -38 3
-38 24 0 32 -19 37 -61 15z"/>
</g>
</svg>
