<?xml version="1.0" standalone="no"?>
<!DOCTYPE svg PUBLIC "-//W3C//DTD SVG 20010904//EN"
 "http://www.w3.org/TR/2001/REC-SVG-20010904/DTD/svg10.dtd">
<svg version="1.0" xmlns="http://www.w3.org/2000/svg"
 width="846.000000pt" height="1280.000000pt" viewBox="0 0 846.000000 1280.000000"
 preserveAspectRatio="xMidYMid meet">
<metadata>
Created by potrace 1.15, written by Peter Selinger 2001-2017
</metadata>
<g transform="translate(0.000000,1280.000000) scale(0.100000,-0.100000)"
fill="#000000" stroke="none">
<path d="M4090 12794 c-121 -11 -175 -25 -215 -57 -35 -28 -50 -33 -121 -38
-87 -7 -170 -37 -181 -65 -4 -10 3 -35 17 -60 l23 -44 -36 -39 c-25 -28 -43
-64 -62 -126 -24 -80 -31 -91 -90 -149 -74 -71 -78 -88 -43 -161 22 -46 22
-47 4 -78 -86 -145 -117 -208 -111 -227 4 -11 23 -28 43 -38 l36 -17 -3 -66
c-1 -36 -6 -82 -11 -103 -10 -46 2 -79 36 -95 28 -13 29 -18 8 -61 -23 -44
-29 -110 -15 -153 7 -20 31 -52 53 -73 l41 -37 145 7 144 7 -32 -58 c-45 -81
-77 -121 -114 -144 -27 -18 -42 -19 -111 -14 -97 8 -149 27 -246 90 -158 103
-290 166 -450 216 -145 46 -458 25 -705 -47 -30 -9 -64 -12 -76 -8 -13 4 -58
33 -102 66 -144 108 -227 138 -380 138 -56 0 -128 -7 -161 -15 -54 -13 -61
-12 -72 2 -17 22 -17 25 8 167 17 96 19 139 13 206 -10 122 -9 201 6 246 16
48 142 273 175 313 14 16 33 31 43 33 31 9 84 -15 156 -70 48 -36 78 -52 100
-52 43 0 54 -10 58 -50 3 -30 12 -41 71 -81 73 -50 188 -89 264 -89 82 0 204
74 237 143 12 27 16 72 18 198 3 152 1 167 -19 205 -30 57 -48 70 -77 56 -22
-10 -27 -7 -52 29 -37 53 -50 59 -137 59 -62 0 -91 6 -168 36 -168 65 -225 76
-432 81 -156 5 -199 3 -260 -12 -110 -26 -170 -81 -208 -191 -17 -50 -34 -73
-117 -154 -124 -122 -427 -441 -519 -545 -85 -97 -220 -274 -257 -337 -61
-104 -136 -329 -136 -409 0 -21 -13 -60 -30 -92 -37 -70 -47 -126 -29 -168 10
-25 27 -38 74 -60 66 -29 78 -41 104 -92 18 -35 70 -67 191 -118 175 -72 242
-107 399 -206 207 -131 372 -212 523 -257 282 -85 476 -104 682 -66 77 14 130
20 136 14 9 -9 20 -106 40 -354 15 -193 85 -451 165 -610 52 -103 118 -183
297 -362 l168 -167 183 -368 c132 -265 202 -419 249 -548 89 -242 88 -237 38
-304 -47 -62 -48 -66 -53 -186 -3 -88 -5 -93 -71 -224 -65 -129 -68 -138 -87
-270 -24 -160 -23 -158 -83 -373 -73 -263 -151 -496 -247 -732 -98 -241 -135
-375 -170 -606 -32 -221 -17 -467 38 -615 36 -96 35 -186 -6 -377 -17 -81 -31
-175 -31 -208 0 -107 -14 -139 -107 -247 -217 -251 -286 -398 -318 -683 -10
-84 11 -385 46 -675 28 -233 31 -279 26 -440 -9 -273 -42 -435 -123 -603 -44
-92 -45 -93 -167 -189 -246 -195 -428 -366 -486 -458 -68 -108 -47 -184 91
-326 109 -111 186 -154 278 -153 57 0 80 7 180 52 125 57 152 78 245 197 35
44 110 125 167 180 60 58 130 138 166 190 35 50 77 107 94 128 30 35 33 45 38
130 3 51 3 112 -1 137 -4 25 -12 80 -18 122 -23 151 25 351 139 578 49 98 98
173 231 355 169 232 217 319 239 436 6 28 10 136 10 239 0 162 3 204 26 316
30 145 58 213 136 329 30 44 73 107 95 141 80 117 141 245 172 360 63 234 117
327 342 595 94 112 193 240 219 284 27 44 59 96 71 117 13 21 27 34 35 31 28
-10 114 -317 114 -404 0 -74 42 -279 81 -397 19 -57 29 -101 25 -115 -55 -188
-68 -282 -55 -392 8 -65 8 -103 0 -131 -6 -22 -50 -105 -97 -185 -111 -184
-241 -471 -289 -635 -42 -143 -42 -181 0 -429 49 -291 52 -423 12 -575 -37
-139 -139 -435 -221 -645 -76 -191 -83 -231 -68 -377 12 -110 28 -146 83 -184
33 -22 52 -26 170 -35 335 -23 420 -46 545 -145 92 -72 134 -91 224 -99 56 -5
95 -16 155 -43 66 -30 91 -37 140 -36 118 2 171 13 216 47 23 18 58 41 78 52
66 37 87 115 55 209 -12 34 -26 54 -53 71 -39 25 -207 80 -281 91 -39 6 -55
17 -116 79 -45 45 -111 96 -175 135 -168 103 -307 199 -335 233 -23 28 -26 38
-21 87 17 191 243 645 478 960 141 189 214 301 238 365 39 105 81 400 81 580
0 88 23 140 111 250 108 136 149 250 164 460 11 163 40 268 104 378 66 116
145 237 241 367 127 174 169 263 191 405 13 85 -7 528 -32 705 -17 121 -19
170 -14 305 8 176 -7 442 -32 565 -25 125 -61 228 -130 372 -50 105 -70 161
-88 246 -25 117 -57 190 -136 310 -58 89 -88 165 -100 254 -12 94 -17 112 -56
211 -45 114 -56 189 -48 312 10 152 30 241 67 301 54 90 212 272 377 434 164
161 219 227 267 320 28 53 29 59 27 193 -1 80 2 137 7 137 6 0 47 -15 92 -34
167 -68 289 -98 458 -111 96 -8 405 17 485 39 117 32 331 118 395 159 l69 44
118 6 c89 4 139 12 203 32 112 36 249 107 308 160 44 40 47 46 47 91 -1 27 -7
99 -15 159 -10 76 -14 182 -12 345 4 328 -8 370 -187 650 -99 154 -93 142
-173 355 -97 257 -126 346 -142 441 -12 69 -21 93 -38 106 -30 22 -112 48
-154 48 -19 0 -51 7 -72 16 -146 62 -249 95 -279 89 -25 -4 -44 1 -76 20 -32
18 -58 25 -95 25 -28 0 -83 5 -122 12 -67 12 -71 11 -102 -12 -29 -21 -35 -22
-75 -12 -24 7 -59 12 -77 12 -48 0 -80 -42 -112 -148 -15 -47 -37 -103 -49
-123 -34 -53 -47 -108 -32 -135 28 -50 90 -139 100 -143 6 -2 21 -15 34 -27
19 -19 35 -24 72 -24 44 0 48 -2 62 -32 12 -29 19 -33 59 -36 31 -2 55 3 83
18 28 16 67 24 150 31 66 6 125 17 143 26 27 14 37 14 62 4 33 -14 40 -26 77
-125 40 -108 33 -170 -48 -436 -44 -142 -77 -301 -77 -367 0 -18 -2 -33 -5
-33 -3 0 -40 17 -83 39 -97 49 -218 89 -301 101 -99 14 -146 -1 -248 -76 -47
-35 -97 -67 -109 -70 -25 -6 -208 41 -444 114 -144 44 -146 45 -295 45 -129 1
-165 -3 -255 -25 -223 -55 -314 -58 -415 -13 -59 26 -310 216 -327 248 -7 13
-9 63 -5 141 7 164 35 219 152 304 91 65 115 92 115 131 0 23 13 54 40 95 48
75 74 169 67 245 -3 41 0 67 14 98 29 64 13 127 -59 233 -32 47 -64 105 -71
130 -20 67 -70 137 -157 220 -105 99 -234 161 -409 196 -69 14 -388 26 -475
18z"/>
</g>
</svg>
