<?xml version="1.0" standalone="no"?>
<!DOCTYPE svg PUBLIC "-//W3C//DTD SVG 20010904//EN"
 "http://www.w3.org/TR/2001/REC-SVG-20010904/DTD/svg10.dtd">
<svg version="1.0" xmlns="http://www.w3.org/2000/svg"
 width="1280.000000pt" height="816.000000pt" viewBox="0 0 1280.000000 816.000000"
 preserveAspectRatio="xMidYMid meet">
<metadata>
Created by potrace 1.15, written by Peter Selinger 2001-2017
</metadata>
<g transform="translate(0.000000,816.000000) scale(0.100000,-0.100000)"
fill="#000000" stroke="none">
<path d="M1814 8150 c-136 -5 -220 -13 -260 -24 -88 -25 -310 -115 -339 -138
-14 -10 -31 -41 -39 -67 -30 -103 -76 -157 -186 -221 -98 -57 -171 -83 -430
-154 -489 -133 -503 -138 -533 -167 -34 -35 -35 -64 -1 -171 59 -189 131 -306
256 -421 121 -112 174 -137 310 -148 78 -6 126 -16 166 -33 31 -13 84 -36 117
-50 82 -35 161 -35 235 0 74 36 186 43 275 19 35 -9 70 -24 78 -33 10 -12 16
-48 19 -112 4 -111 21 -148 84 -193 76 -53 178 -67 341 -47 56 7 89 7 109 0
16 -6 80 -61 142 -123 101 -100 118 -122 158 -205 38 -80 61 -109 155 -208
126 -132 178 -207 259 -378 74 -155 135 -336 204 -604 33 -130 65 -230 81
-257 14 -25 58 -70 98 -102 95 -75 129 -113 184 -203 25 -41 68 -105 95 -143
79 -106 154 -310 183 -492 45 -290 81 -857 69 -1105 -9 -176 -11 -473 -6 -671
4 -119 -5 -162 -89 -449 -28 -96 -57 -200 -65 -230 -8 -30 -23 -68 -33 -85
l-17 -30 -100 -1 c-88 0 -108 -4 -179 -33 -44 -18 -99 -43 -121 -56 -46 -27
-104 -108 -104 -146 0 -13 14 -54 32 -92 28 -57 39 -70 78 -89 60 -29 179 -34
373 -14 130 13 155 18 200 44 67 38 110 101 144 210 15 47 44 115 65 151 21
36 47 95 59 131 40 121 128 270 160 270 5 0 14 -11 20 -23 11 -25 -3 -89 -96
-413 -49 -174 -72 -223 -129 -282 -51 -54 -101 -81 -174 -92 -31 -5 -88 -25
-128 -44 -111 -53 -160 -132 -152 -245 5 -70 32 -111 91 -140 37 -18 74 -22
284 -31 173 -8 252 -8 281 0 55 14 177 112 202 160 11 21 29 96 40 167 25 156
74 304 142 435 59 113 80 138 113 138 60 0 75 24 106 171 20 97 21 122 15 384
-8 346 14 652 84 1148 11 75 20 180 20 231 0 96 23 308 41 381 6 22 28 70 50
107 21 36 44 89 51 117 l11 51 144 0 c246 0 538 47 1000 160 135 33 307 71
383 85 76 14 223 51 327 81 103 30 253 68 333 84 178 37 210 48 380 122 169
74 336 161 436 227 63 42 85 51 121 51 37 0 50 -5 77 -32 71 -72 248 -385 312
-553 26 -66 59 -142 75 -170 15 -27 37 -76 49 -108 12 -31 32 -76 45 -100 41
-72 250 -325 329 -399 42 -38 120 -124 173 -191 114 -145 183 -218 240 -258
54 -37 238 -257 315 -374 118 -181 144 -301 135 -610 -6 -203 -30 -444 -47
-475 -12 -22 -19 -24 -144 -39 -107 -13 -144 -32 -254 -136 -97 -91 -110 -117
-91 -182 20 -72 79 -126 154 -141 120 -24 213 -15 433 45 109 30 139 42 164
67 50 51 86 139 99 246 6 52 15 120 19 150 7 53 8 52 9 -33 2 -148 -32 -315
-81 -401 -21 -36 -30 -42 -110 -66 -142 -44 -221 -103 -248 -185 -16 -47 -5
-121 21 -143 11 -9 41 -38 67 -63 65 -64 112 -74 327 -73 209 1 255 7 297 42
18 15 50 65 75 117 25 49 58 115 75 145 29 54 30 57 24 165 -3 61 -10 162 -16
225 -13 140 -5 959 10 1105 6 55 13 144 17 198 l6 99 -64 56 c-161 142 -261
266 -393 487 -107 178 -149 296 -201 575 -21 113 -26 165 -26 320 0 176 7 268
50 650 39 342 37 406 -24 651 -42 167 -84 276 -186 481 -44 87 -79 167 -79
179 0 27 83 107 146 141 42 22 69 28 194 38 80 6 210 18 290 26 80 8 219 19
310 24 199 11 544 62 620 91 30 12 148 69 262 126 232 116 274 146 493 350
285 266 815 816 815 845 0 17 -71 18 -145 3 -110 -23 -165 -52 -270 -140 -109
-93 -781 -593 -909 -677 -176 -116 -347 -189 -539 -229 -99 -21 -123 -22 -787
-22 -493 0 -709 3 -770 12 -46 7 -165 39 -265 71 -227 74 -279 87 -610 152
l-270 53 -555 -1 c-646 -2 -772 -9 -1250 -71 -323 -42 -374 -46 -565 -47 -240
0 -230 -1 -705 116 -594 146 -787 201 -915 258 -33 15 -141 77 -240 137 -99
61 -198 117 -220 124 -72 26 -694 612 -1045 985 -95 101 -167 153 -255 186
-54 20 -81 22 -265 24 -113 1 -295 -2 -406 -6z"/>
</g>
</svg>
