<?xml version="1.0" standalone="no"?>
<!DOCTYPE svg PUBLIC "-//W3C//DTD SVG 20010904//EN"
 "http://www.w3.org/TR/2001/REC-SVG-20010904/DTD/svg10.dtd">
<svg version="1.0" xmlns="http://www.w3.org/2000/svg"
 width="1280.000000pt" height="960.000000pt" viewBox="0 0 1280.000000 960.000000"
 preserveAspectRatio="xMidYMid meet">
<metadata>
Created by potrace 1.15, written by Peter Selinger 2001-2017
</metadata>
<g transform="translate(0.000000,960.000000) scale(0.100000,-0.100000)"
fill="#000000" stroke="none">
<path d="M11890 9235 c-388 -111 -879 -253 -1092 -314 -213 -62 -410 -115
-437 -118 -28 -3 -51 -9 -51 -12 0 -3 182 -46 405 -96 223 -49 405 -91 405
-94 -1 -8 -1690 -1235 -1704 -1238 -6 -2 -36 30 -66 69 -30 39 -100 117 -155
173 -342 347 -762 561 -1219 621 -144 19 -468 14 -636 -10 -633 -92 -1093
-359 -1673 -973 -71 -76 -133 -138 -136 -138 -3 0 -70 68 -148 151 -568 599
-1034 868 -1663 960 -169 24 -492 29 -637 10 -930 -123 -1708 -913 -1849
-1876 -23 -157 -15 -555 14 -745 56 -360 145 -645 301 -970 264 -548 643
-1050 1314 -1743 l168 -173 -43 -31 c-24 -18 -336 -244 -695 -505 -358 -260
-653 -473 -656 -473 -2 0 -125 63 -273 140 -147 77 -273 139 -279 138 -14 -4
-184 -122 -184 -128 -1 -3 121 -68 269 -145 148 -77 270 -142 269 -145 0 -3
-41 -35 -91 -72 l-91 -68 -196 102 c-108 56 -231 121 -275 144 l-78 42 -94
-66 c-52 -36 -94 -68 -94 -71 0 -4 79 -46 176 -96 97 -49 218 -113 271 -141
l95 -51 -93 -68 -92 -68 -276 141 -276 141 -93 -66 c-52 -36 -90 -69 -85 -73
4 -5 123 -68 263 -140 140 -73 259 -136 263 -140 5 -4 -14 -24 -42 -45 -28
-20 -51 -39 -51 -42 0 -7 222 -313 227 -313 3 0 28 16 55 36 27 20 51 34 54
31 3 -2 27 -136 54 -297 27 -161 51 -294 54 -297 2 -3 45 25 96 62 82 61 91
70 86 94 -9 44 -96 569 -96 580 0 5 42 40 92 76 90 64 93 65 100 43 3 -13 26
-144 49 -293 23 -148 45 -274 49 -278 6 -7 50 21 188 118 1 1 -21 141 -49 310
-42 253 -49 309 -38 316 8 4 50 35 94 68 76 57 80 59 87 38 4 -12 25 -139 48
-282 22 -143 43 -270 45 -282 5 -21 10 -19 93 39 48 33 91 64 96 69 4 4 -15
143 -44 310 -42 248 -49 304 -38 315 13 12 1391 1013 1416 1028 8 5 369 -347
1118 -1091 608 -604 1109 -1098 1114 -1098 14 0 2259 2234 2603 2590 310 319
510 540 682 750 523 638 822 1201 955 1800 78 352 96 760 45 1050 -30 173
-103 403 -169 534 -17 32 -24 57 -19 62 19 19 1728 1258 1730 1255 2 -2 -15
-186 -37 -410 -22 -224 -40 -412 -40 -419 0 -7 17 17 37 53 20 36 319 484 665
997 345 512 628 934 628 937 0 3 -3 6 -7 5 -5 0 -325 -92 -713 -204z"/>
</g>
</svg>
