<?xml version="1.0" standalone="no"?>
<!DOCTYPE svg PUBLIC "-//W3C//DTD SVG 20010904//EN"
 "http://www.w3.org/TR/2001/REC-SVG-20010904/DTD/svg10.dtd">
<svg version="1.0" xmlns="http://www.w3.org/2000/svg"
 width="1280.000000pt" height="818.000000pt" viewBox="0 0 1280.000000 818.000000"
 preserveAspectRatio="xMidYMid meet">
<metadata>
Created by potrace 1.15, written by Peter Selinger 2001-2017
</metadata>
<g transform="translate(0.000000,818.000000) scale(0.100000,-0.100000)"
fill="#000000" stroke="none">
<path d="M4432 8147 c-11 -18 -77 -131 -147 -252 -124 -214 -215 -338 -428
-587 l-49 -58 -118 0 -118 0 -78 -65 -77 -64 -157 -328 -157 -328 -7 -195
c-17 -485 -60 -777 -132 -896 -49 -81 -119 -164 -292 -346 -82 -86 -173 -189
-203 -230 -168 -230 -523 -649 -696 -825 -68 -68 -130 -121 -160 -136 -60 -31
-168 -143 -291 -302 -51 -66 -104 -135 -119 -154 -55 -71 -191 -104 -259 -62
-81 49 -112 222 -83 467 6 52 10 97 7 99 -2 2 -161 -36 -353 -86 -193 -49
-387 -99 -432 -110 l-83 -21 0 -1834 c0 -1009 3 -1834 8 -1834 4 0 331 11 727
25 396 14 747 25 780 25 l60 1 -52 24 c-264 120 -358 355 -268 671 35 121 145
342 246 494 177 264 489 662 692 883 177 192 264 246 567 352 197 68 254 94
380 169 124 75 655 338 840 417 80 33 199 80 265 103 l120 41 285 -1 c377 0
841 -33 983 -70 91 -23 407 -121 520 -161 l97 -35 0 -75 c0 -88 18 -133 54
-133 37 0 92 27 357 171 440 239 469 250 739 270 381 30 926 -47 1262 -176
107 -41 125 -51 268 -136 63 -37 147 -78 185 -89 259 -80 529 -185 1080 -422
l350 -150 130 -102 c835 -650 1325 -1204 1325 -1499 0 -79 -19 -127 -72 -178
l-47 -47 327 -6 c180 -3 386 -8 459 -11 l131 -5 1 1995 2 1996 -103 -79 c-411
-315 -805 -530 -1080 -587 -90 -19 -211 -19 -277 1 -34 10 -86 41 -154 93 -56
42 -148 109 -203 149 -151 106 -187 152 -467 593 -261 411 -447 665 -617 842
l-95 100 4 651 c2 446 0 664 -8 691 -13 50 -109 171 -248 316 -129 134 -114
126 -663 347 -217 88 -412 168 -432 178 -36 17 -40 17 -93 0 -68 -21 -115 -59
-115 -92 0 -51 132 -315 178 -357 15 -14 310 -74 503 -102 67 -10 68 -11 57
-82 -6 -34 -7 -74 -4 -88 4 -15 51 -74 106 -130 134 -140 134 -141 102 -237
-14 -43 -31 -78 -37 -78 -7 0 -52 55 -101 123 -256 356 -300 401 -421 432 -90
22 -569 53 -910 58 l-161 2 -164 -82 c-294 -147 -581 -314 -618 -358 -30 -36
31 -171 120 -261 127 -130 226 -114 556 91 76 47 144 85 152 85 8 0 118 -34
244 -75 126 -42 249 -78 272 -81 l44 -6 51 -187 c76 -279 79 -294 56 -336 -29
-55 -109 -125 -142 -125 -15 0 -71 19 -123 41 -261 111 -421 173 -492 191 -93
23 -125 19 -270 -38 -134 -51 -609 -288 -639 -318 -14 -13 -53 -89 -89 -168
-88 -197 -148 -318 -160 -318 -14 0 -19 28 -30 171 -5 70 -14 138 -19 151 -12
32 -171 207 -309 340 -160 154 -305 258 -361 258 -66 0 -712 -191 -883 -261
-181 -75 -188 -74 -188 16 0 74 25 328 46 475 28 195 11 168 233 348 232 189
700 584 858 725 104 93 113 104 119 145 15 100 -18 315 -54 355 -39 43 -157
-12 -322 -149 -276 -229 -536 -422 -738 -547 -114 -71 -222 -140 -240 -153
-36 -28 -95 -113 -197 -284 -48 -81 -93 -141 -153 -202 -47 -49 -87 -86 -89
-85 -3 4 150 464 195 583 17 45 56 132 87 195 117 233 276 616 310 746 21 80
-5 132 -88 174 -79 41 -84 41 -105 6z m1136 -2731 c56 -29 214 -134 330 -220
93 -68 119 -105 192 -269 45 -101 58 -115 124 -137 68 -22 131 -16 187 19 29
18 64 31 82 31 72 0 209 109 388 308 63 71 82 85 131 102 111 39 254 71 339
77 l85 6 85 -50 c46 -28 113 -66 149 -86 132 -72 534 -370 610 -453 53 -58 57
-79 30 -187 -13 -55 -25 -145 -30 -227 -6 -111 -11 -144 -31 -185 -33 -70
-104 -137 -190 -181 -41 -20 -84 -45 -97 -54 -25 -20 -106 -39 -292 -70 -69
-11 -171 -30 -227 -41 -56 -11 -230 -42 -387 -68 -253 -43 -291 -52 -326 -76
-60 -41 -182 -167 -283 -290 -49 -60 -94 -111 -98 -113 -5 -2 -9 4 -9 13 0 10
-14 44 -31 76 -92 173 -416 393 -644 438 -121 24 -384 57 -595 75 -178 15
-195 21 -314 116 -55 43 -83 74 -102 111 -33 67 -69 227 -89 404 -24 208 -23
241 5 300 51 102 276 299 476 416 120 70 453 239 470 239 8 0 36 -11 62 -24z"/>
</g>
</svg>
