<svg xmlns="http://www.w3.org/2000/svg" viewBox="-100 -100 13000 8373">
	<path d="M 4432 8147 c -11 -18 -77 -131 -147 -252 c -124 -214 -215 -338 -428 -587 l -49 -58 l -118 0 l -118 0 l -78 -65 l -77 -64 l -157 -328 l -157 -328 l -7 -195 c -17 -485 -60 -777 -132 -896 c -49 -81 -119 -164 -292 -346 c -82 -86 -173 -189 -203 -230 c -168 -230 -523 -649 -696 -825 c -68 -68 -130 -121 -160 -136 c -60 -31 -168 -143 -291 -302 c -51 -66 -104 -135 -119 -154 c -55 -71 -191 -104 -259 -62 c -81 49 -112 222 -83 467 c 6 52 10 97 7 99 c -2 2 -161 -36 -353 -86 c -193 -49 -387 -99 -432 -110 l -83 -21 l 0 -1834 c 0 -1009 3 -1834 8 -1834 c 4 0 331 11 727 25 c 396 14 747 25 780 25 l 60 1 l -52 24 c -264 120 -358 355 -268 671 c 35 121 145 342 246 494 c 177 264 489 662 692 883 c 177 192 264 246 567 352 c 197 68 254 94 380 169 c 124 75 655 338 840 417 c 80 33 199 80 265 103 l 120 41 l 285 -1 c 377 0 841 -33 983 -70 c 91 -23 407 -121 520 -161 l 97 -35 l 0 -75 c 0 -88 18 -133 54 -133 c 37 0 92 27 357 171 c 440 239 469 250 739 270 c 381 30 926 -47 1262 -176 c 107 -41 125 -51 268 -136 c 63 -37 147 -78 185 -89 c 259 -80 529 -185 1080 -422 l 350 -150 l 130 -102 c 835 -650 1325 -1204 1325 -1499 c 0 -79 -19 -127 -72 -178 l -47 -47 l 327 -6 c 180 -3 386 -8 459 -11 l 131 -5 l 1 1995 l 2 1996 l -103 -79 c -411 -315 -805 -530 -1080 -587 c -90 -19 -211 -19 -277 1 c -34 10 -86 41 -154 93 c -56 42 -148 109 -203 149 c -151 106 -187 152 -467 593 c -261 411 -447 665 -617 842 l -95 100 l 4 651 c 2 446 0 664 -8 691 c -13 50 -109 171 -248 316 c -129 134 -114 126 -663 347 c -217 88 -412 168 -432 178 c -36 17 -40 17 -93 0 c -68 -21 -115 -59 -115 -92 c 0 -51 132 -315 178 -357 c 15 -14 310 -74 503 -102 c 67 -10 68 -11 57 -82 c -6 -34 -7 -74 -4 -88 c 4 -15 51 -74 106 -130 c 134 -140 134 -141 102 -237 c -14 -43 -31 -78 -37 -78 c -7 0 -52 55 -101 123 c -256 356 -300 401 -421 432 c -90 22 -569 53 -910 58 l -161 2 l -164 -82 c -294 -147 -581 -314 -618 -358 c -30 -36 31 -171 120 -261 c 127 -130 226 -114 556 91 c 76 47 144 85 152 85 c 8 0 118 -34 244 -75 c 126 -42 249 -78 272 -81 l 44 -6 l 51 -187 c 76 -279 79 -294 56 -336 c -29 -55 -109 -125 -142 -125 c -15 0 -71 19 -123 41 c -261 111 -421 173 -492 191 c -93 23 -125 19 -270 -38 c -134 -51 -609 -288 -639 -318 c -14 -13 -53 -89 -89 -168 c -88 -197 -148 -318 -160 -318 c -14 0 -19 28 -30 171 c -5 70 -14 138 -19 151 c -12 32 -171 207 -309 340 c -160 154 -305 258 -361 258 c -66 0 -712 -191 -883 -261 c -181 -75 -188 -74 -188 16 c 0 74 25 328 46 475 c 28 195 11 168 233 348 c 232 189 700 584 858 725 c 104 93 113 104 119 145 c 15 100 -18 315 -54 355 c -39 43 -157 -12 -322 -149 c -276 -229 -536 -422 -738 -547 c -114 -71 -222 -140 -240 -153 c -36 -28 -95 -113 -197 -284 c -48 -81 -93 -141 -153 -202 c -47 -49 -87 -86 -89 -85 c -3 4 150 464 195 583 c 17 45 56 132 87 195 c 117 233 276 616 310 746 c 21 80 -5 132 -88 174 c -79 41 -84 41 -105 6 l 1136 -2731 c 56 -29 214 -134 330 -220 c 93 -68 119 -105 192 -269 c 45 -101 58 -115 124 -137 c 68 -22 131 -16 187 19 c 29 18 64 31 82 31 c 72 0 209 109 388 308 c 63 71 82 85 131 102 c 111 39 254 71 339 77 l 85 6 l 85 -50 c 46 -28 113 -66 149 -86 c 132 -72 534 -370 610 -453 c 53 -58 57 -79 30 -187 c -13 -55 -25 -145 -30 -227 c -6 -111 -11 -144 -31 -185 c -33 -70 -104 -137 -190 -181 c -41 -20 -84 -45 -97 -54 c -25 -20 -106 -39 -292 -70 c -69 -11 -171 -30 -227 -41 c -56 -11 -230 -42 -387 -68 c -253 -43 -291 -52 -326 -76 c -60 -41 -182 -167 -283 -290 c -49 -60 -94 -111 -98 -113 c -5 -2 -9 4 -9 13 c 0 10 -14 44 -31 76 c -92 173 -416 393 -644 438 c -121 24 -384 57 -595 75 c -178 15 -195 21 -314 116 c -55 43 -83 74 -102 111 c -33 67 -69 227 -89 404 c -24 208 -23 241 5 300 c 51 102 276 299 476 416 c 120 70 453 239 470 239 c 8 0 36 -11 62 -24 z" stroke="#FF0000" stroke-width="100" fill="none"/>
</svg>