<?xml version="1.0" standalone="no"?>
<!DOCTYPE svg PUBLIC "-//W3C//DTD SVG 20010904//EN"
 "http://www.w3.org/TR/2001/REC-SVG-20010904/DTD/svg10.dtd">
<svg version="1.0" xmlns="http://www.w3.org/2000/svg"
 width="1135.000000pt" height="1280.000000pt" viewBox="0 0 1135.000000 1280.000000"
 preserveAspectRatio="xMidYMid meet">
<metadata>
Created by potrace 1.15, written by Peter Selinger 2001-2017
</metadata>
<g transform="translate(0.000000,1280.000000) scale(0.100000,-0.100000)"
fill="#000000" stroke="none">
<path d="M2303 12785 c-141 -18 -243 -41 -503 -115 -248 -71 -293 -80 -375
-80 -36 0 -65 -4 -65 -9 0 -5 127 -51 282 -101 155 -51 334 -112 397 -137 127
-49 129 -49 564 -68 87 -4 156 -9 153 -12 -2 -3 -53 -15 -113 -28 -127 -28
-145 -34 -140 -48 4 -12 13 -16 282 -118 l190 -72 150 -8 c83 -4 170 -8 195
-9 43 -1 42 -2 -38 -23 -46 -12 -84 -26 -84 -32 0 -5 136 -65 303 -132 l304
-122 115 -6 c63 -3 130 -8 149 -11 l34 -5 -37 -25 c-21 -14 -35 -31 -33 -37 2
-7 95 -52 208 -100 1030 -446 2006 -926 2914 -1435 291 -162 596 -339 610
-353 5 -5 -21 -9 -73 -9 l-81 0 -113 68 c-841 510 -2120 941 -3158 1066 -74 9
-202 28 -285 41 -213 35 -309 44 -623 56 -795 30 -1944 -74 -2462 -222 -156
-45 -309 -109 -561 -235 -220 -110 -328 -154 -376 -154 -14 0 -23 -6 -23 -15
0 -13 25 -15 168 -15 92 0 289 -5 437 -11 l270 -11 255 51 c141 28 263 51 270
51 8 0 -30 -20 -85 -45 -55 -25 -101 -45 -102 -45 -2 0 -3 -6 -3 -14 0 -15 -7
-14 351 -35 164 -10 167 -10 310 20 215 45 211 44 143 11 -34 -17 -64 -35 -68
-40 -8 -13 23 -16 375 -42 l276 -20 136 25 c75 14 142 25 149 25 7 0 0 -12
-15 -26 -17 -16 -25 -30 -20 -35 6 -6 149 -23 319 -39 697 -68 1213 -129 1884
-226 651 -93 1646 -264 1610 -277 -8 -2 -71 -17 -140 -32 -484 -106 -958 -327
-1370 -641 -273 -208 -460 -515 -565 -931 -25 -98 -66 -330 -80 -444 -6 -57
-6 -57 -50 -69 -39 -11 -44 -16 -54 -54 -170 -635 -242 -1081 -267 -1668 -8
-180 -15 -168 89 -139 37 11 67 16 67 12 0 -5 -33 -190 -74 -412 -48 -264 -78
-456 -85 -554 -69 -865 -347 -1539 -850 -2057 -51 -54 -89 -98 -82 -98 38 0
358 63 370 73 9 7 43 34 76 61 l60 49 8 -39 c4 -21 12 -41 18 -45 14 -8 147
17 168 33 9 6 40 35 70 62 l53 51 -21 -42 c-31 -62 -29 -66 27 -59 26 4 56 10
66 13 23 7 33 20 -137 -191 -275 -341 -726 -993 -698 -1010 5 -3 55 19 112 49
249 129 546 217 889 261 170 22 641 25 800 6 470 -59 856 -174 1165 -345 42
-23 512 -355 1046 -737 533 -382 976 -696 983 -698 9 -2 -59 192 -180 514
-107 284 -194 523 -194 530 0 17 93 230 122 281 65 114 159 202 278 260 41 20
76 37 78 38 1 1 -4 55 -13 119 -19 149 -20 413 0 531 13 80 23 121 68 267 9
32 8 40 -9 59 -19 22 -19 22 1 15 11 -4 130 -49 265 -100 245 -93 245 -93 507
-140 l262 -46 364 0 c343 0 367 1 426 21 144 49 191 120 215 327 8 73 17 136
20 141 3 4 -32 59 -79 121 -69 93 -82 116 -75 133 4 12 54 117 110 232 56 116
111 231 122 258 l21 47 -45 68 c-24 37 -52 79 -62 94 l-17 26 79 48 c64 38 78
51 75 68 -48 285 -90 582 -82 586 5 4 161 12 347 19 185 7 347 14 360 17 16 3
35 30 73 105 l50 101 -293 570 -293 570 -223 175 -223 175 17 25 c9 14 79 114
157 222 147 206 163 237 173 350 11 123 -45 283 -147 418 -52 68 -74 109 -61
116 4 2 28 10 55 17 26 7 47 15 47 19 0 3 -16 65 -36 136 -133 488 -279 878
-500 1333 -85 177 -106 213 -121 208 -10 -2 -37 -10 -61 -17 l-42 -12 -103
100 c-290 284 -643 450 -1102 517 -60 9 -124 19 -141 21 -25 4 -42 21 -89 88
-292 410 -758 895 -1230 1283 -479 392 -1037 750 -1505 964 -73 34 -145 69
-159 79 -116 82 -455 218 -835 336 -803 248 -1874 409 -2333 350z"/>
</g>
</svg>
